<svg width="12" height="11" viewBox="0 0 12 11" fill="none" xmlns="http://www.w3.org/2000/svg">
<path fill-rule="evenodd" clip-rule="evenodd" d="M8.29697e-05 5.25016C8.29697e-05 5.05127 0.0790901 4.86053 0.219726 4.7199C0.360361 4.57926 0.551105 4.50025 0.749993 4.50025L9.43846 4.50025L6.21834 1.28163C6.14862 1.21191 6.09331 1.12914 6.05558 1.03804C6.01784 0.946939 5.99842 0.849301 5.99842 0.750697C5.99842 0.652093 6.01784 0.554454 6.05558 0.463355C6.09331 0.372257 6.14862 0.289483 6.21834 0.21976C6.28807 0.150036 6.37084 0.0947285 6.46194 0.0569935C6.55304 0.0192595 6.65068 -0.000161171 6.74928 -0.000161171C6.84789 -0.000161171 6.94553 0.0192595 7.03662 0.0569935C7.12772 0.0947285 7.2105 0.150036 7.28022 0.21976L11.7797 4.71923C11.8495 4.78889 11.9049 4.87164 11.9427 4.96275C11.9805 5.05385 12 5.15152 12 5.25016C12 5.3488 11.9805 5.44647 11.9427 5.53758C11.9049 5.62869 11.8495 5.71144 11.7797 5.7811L7.28022 10.2806C7.13941 10.4214 6.94842 10.5005 6.74928 10.5005C6.55014 10.5005 6.35916 10.4214 6.21834 10.2806C6.07753 10.1398 5.99842 9.94877 5.99842 9.74963C5.99842 9.55049 6.07753 9.35951 6.21834 9.21869L9.43846 6.00007L0.749993 6.00007C0.551105 6.00007 0.360361 5.92107 0.219726 5.78043C0.0790901 5.63979 8.29697e-05 5.44905 8.29697e-05 5.25016Z" fill="#37A89A" fill-opacity="0.7"/>
</svg>
