<svg width="34" height="28" viewBox="0 0 34 28" fill="none" xmlns="http://www.w3.org/2000/svg">
<path d="M5.525 1.18578e-08H28.475C29.8862 -9.23894e-05 31.244 0.539842 32.2698 1.50904C33.2956 2.47824 33.9116 3.80323 33.9915 5.2122L34 5.525V21.675C34.0001 23.0862 33.4602 24.444 32.491 25.4698C31.5218 26.4956 30.1968 27.1116 28.7878 27.1915L28.475 27.2H5.525C4.11377 27.2001 2.75599 26.6602 1.73021 25.691C0.704424 24.7218 0.0883978 23.3968 0.00850021 21.9878L1.18578e-08 21.675V5.525C-9.23894e-05 4.11377 0.539842 2.75599 1.50904 1.73021C2.47824 0.704424 3.80323 0.0883978 5.2122 0.00850021L5.525 1.18578e-08H28.475H5.525ZM31.45 9.1341L17.595 16.4271C17.4386 16.5097 17.2666 16.5589 17.0901 16.5715C16.9137 16.5841 16.7365 16.5598 16.5699 16.5002L16.4067 16.4288L2.55 9.1358V21.675C2.55003 22.4216 2.83079 23.1409 3.33656 23.6902C3.84232 24.2394 4.53611 24.5784 5.2802 24.6398L5.525 24.65H28.475C29.2219 24.6499 29.9414 24.3689 30.4907 23.8628C31.04 23.3567 31.3788 22.6625 31.4398 21.9181L31.45 21.675V9.1341ZM28.475 2.55H5.525C4.77838 2.55003 4.05906 2.83079 3.50984 3.33656C2.96061 3.84232 2.62164 4.53611 2.5602 5.2802L2.55 5.525V6.2543L17 13.8584L31.45 6.2526V5.525C31.4499 4.77811 31.1689 4.05856 30.6628 3.5093C30.1567 2.96003 29.4625 2.62123 28.7181 2.5602L28.475 2.55Z" fill="#37A89A"/>
</svg>
