<svg width="28" height="38" viewBox="0 0 28 38" fill="none" xmlns="http://www.w3.org/2000/svg">
<path d="M13.7439 5.50687C12.4217 5.50687 11.1291 5.89895 10.0297 6.63354C8.93035 7.36813 8.07348 8.41223 7.56748 9.63381C7.06149 10.8554 6.9291 12.1996 7.18705 13.4964C7.44501 14.7932 8.08172 15.9844 9.01667 16.9194C9.95163 17.8543 11.1428 18.491 12.4397 18.749C13.7365 19.007 15.0807 18.8746 16.3022 18.3686C17.5238 17.8626 18.5679 17.0057 19.3025 15.9063C20.0371 14.8069 20.4292 13.5144 20.4292 12.1922C20.4292 10.4191 19.7248 8.71868 18.4711 7.46494C17.2174 6.21121 15.5169 5.50687 13.7439 5.50687ZM13.7439 16.544C12.8832 16.544 12.0418 16.2888 11.3261 15.8106C10.6105 15.3324 10.0527 14.6527 9.7233 13.8575C9.39392 13.0623 9.30773 12.1873 9.47565 11.3432C9.64357 10.499 10.058 9.72355 10.6667 9.11493C11.2753 8.50631 12.0507 8.09184 12.8949 7.92392C13.7391 7.756 14.6141 7.84219 15.4093 8.17157C16.2045 8.50095 16.8841 9.05874 17.3623 9.7744C17.8405 10.4901 18.0957 11.3314 18.0957 12.1922C18.0927 13.3443 17.6328 14.4482 16.817 15.2618C16.0012 16.0755 14.8961 16.5324 13.7439 16.5324V16.544Z" fill="black"/>
<path d="M13.7439 1.15496e-09C10.1098 0.0030353 6.62461 1.44403 4.04945 4.00825C1.4743 6.57248 0.0184929 10.0516 0 13.6856C0 19.1342 3.0568 23.696 5.2969 27.0212L5.70525 27.6279C7.93401 30.8581 10.325 33.9733 12.8689 36.9616L13.7556 38L14.6423 36.9616C17.1859 33.9731 19.5769 30.8578 21.806 27.6279L22.2143 27.0095C24.4427 23.6844 27.4995 19.1342 27.4995 13.6856C27.481 10.0495 26.0236 6.5687 23.446 4.00414C20.8683 1.43959 17.3801 -4.70842e-05 13.7439 1.15496e-09ZM20.2659 25.6678L19.8459 26.2862C17.8391 29.2963 15.179 32.6681 13.7439 34.3365C12.3672 32.6681 9.64876 29.2963 7.642 26.2862L7.23365 25.6678C5.16856 22.5877 2.33344 18.3758 2.33344 13.6389C2.33344 12.1405 2.62858 10.6567 3.20201 9.27232C3.77544 7.88794 4.61593 6.63005 5.67549 5.57049C6.73506 4.51093 7.99294 3.67043 9.37733 3.097C10.7617 2.52357 12.2455 2.22843 13.7439 2.22843C15.2424 2.22843 16.7262 2.52357 18.1105 3.097C19.4949 3.67043 20.7528 4.51093 21.8124 5.57049C22.8719 6.63005 23.7124 7.88794 24.2859 9.27232C24.8593 10.6567 25.1544 12.1405 25.1544 13.6389C25.1544 18.4225 22.331 22.6343 20.2659 25.6678Z" fill="black"/>
</svg>
