<svg width="41" height="39" viewBox="0 0 41 39" fill="none" xmlns="http://www.w3.org/2000/svg">
<path d="M8.22125 20.8472H1.01517C0.455528 20.8472 0 21.3069 0 21.8665V37.2073C0 37.7669 0.455528 38.2266 1.01517 38.2266H8.22126C8.78527 38.2266 9.2408 37.7669 9.2408 37.2073V21.8665C9.24079 21.3069 8.78526 20.8472 8.22125 20.8472ZM4.62472 35.8536C3.61387 35.8536 2.79393 35.0336 2.79393 34.0272C2.79393 33.0205 3.61387 32.2007 4.62472 32.2007C5.63124 32.2007 6.44686 33.0205 6.44686 34.0272C6.44686 35.0336 5.63124 35.8536 4.62472 35.8536Z" fill="#D1D1D1"/>
<path d="M34.1372 21.9819C34.1372 20.8994 33.2597 20.022 32.1772 20.022H20.4912C22.9704 14.1736 21.7626 11.1435 21.7626 11.1435C20.9744 9.39076 20.0164 8.95713 19.3201 8.91836C18.8109 8.88976 18.3836 9.31238 18.3723 9.82227C18.1689 19.0039 10.1084 21.8654 10.1084 21.8654V36.4437L10.6854 36.8926C11.7946 37.7552 13.1598 38.2236 14.5651 38.2236H30.3973C31.6202 38.2236 32.6116 37.2322 32.6116 36.0092C32.6116 34.7865 31.6202 33.7951 30.3973 33.7951H31.9229C33.1459 33.7951 34.1372 32.8037 34.1372 31.5808C34.1372 30.2467 33.0558 29.1652 31.7216 29.1652C33.0558 29.1652 34.1372 28.0836 34.1372 26.7495C34.1372 25.4331 33.07 24.3657 31.7534 24.3657C33.07 24.3657 34.1372 23.2984 34.1372 21.9819Z" fill="#D1D1D1"/>
<path d="M24.8289 5.89274L23.9309 8.65191C23.8398 8.94255 24.1695 9.18128 24.4125 9.00334L26.7639 7.29404L29.1153 9.00334C29.3582 9.18129 29.688 8.94255 29.5968 8.65191L28.6988 5.89274L31.0502 4.18344C31.2932 4.0055 31.1673 3.61508 30.8637 3.61508H27.9569L27.0589 0.855916C26.9678 0.569512 26.56 0.569512 26.4645 0.855916L25.5708 3.61508H22.6641C22.3604 3.61508 22.2346 4.00549 22.4775 4.18344L24.8289 5.89274Z" fill="#D1D1D1"/>
<path d="M40.6859 12.2094H37.7792L36.8855 9.44576C36.7901 9.15936 36.3823 9.15936 36.2911 9.44576L35.3931 12.2094H32.4864C32.1827 12.2094 32.0568 12.5956 32.2998 12.7733L34.6512 14.4826L33.7532 17.2462C33.6621 17.5326 33.9918 17.7711 34.2347 17.5934L36.5861 15.8883L38.9376 17.5934C39.1805 17.7711 39.5102 17.5326 39.4191 17.2462L38.5211 14.4826L40.8725 12.7733C41.1154 12.5955 40.9896 12.2094 40.6859 12.2094Z" fill="#D1D1D1"/>
<path d="M14.3818 8.36562C14.6291 8.54335 14.9588 8.30037 14.8633 8.01418L13.9653 5.25057L16.3167 3.5455C16.564 3.36777 16.4382 2.97714 16.1345 2.97714H13.2278L12.3297 0.217979C12.2342 -0.0726596 11.8308 -0.0726596 11.7353 0.217979L10.8373 2.97714H7.93055C7.62686 2.97714 7.50106 3.36777 7.74835 3.5455L10.0998 5.25057L9.2017 8.01418C9.10627 8.30037 9.43599 8.54335 9.68326 8.36562L12.0347 6.65631L14.3818 8.36562Z" fill="#D1D1D1"/>
</svg>
