<svg width="35" height="34" viewBox="0 0 35 34" fill="none" xmlns="http://www.w3.org/2000/svg">
<path d="M27.473 13.0765H24.8576C24.8566 12.0364 24.443 11.0392 23.7075 10.3037C22.972 9.56817 21.9747 9.15451 20.9346 9.15347V6.53809C22.668 6.54016 24.3299 7.2297 25.5557 8.45545C26.7814 9.6812 27.471 11.3431 27.473 13.0765Z" fill="#37A89A"/>
<path d="M32.7038 13.0768H30.0884C30.0856 10.6499 29.1203 8.32324 27.4043 6.60716C25.6882 4.89108 23.3615 3.92577 20.9346 3.923V1.30762C24.0549 1.31108 27.0464 2.55216 29.2528 4.75857C31.4593 6.96498 32.7003 9.95651 32.7038 13.0768Z" fill="#37A89A"/>
<path d="M30.0885 34H29.8661C4.17 32.5223 0.52154 10.8408 0.0115397 4.22385C-0.0681691 3.18652 0.267433 2.16001 0.944529 1.3701C1.62162 0.580198 2.58476 0.0915968 3.62208 0.0117705C3.72582 0.00392439 3.83 1.22608e-06 3.93462 1.22608e-06H10.8262C11.35 -0.000505849 11.8618 0.156283 12.2955 0.450059C12.7292 0.743835 13.0647 1.16106 13.2585 1.64769L15.2462 6.53846C15.4375 7.01387 15.485 7.53503 15.3827 8.0372C15.2804 8.53937 15.0329 9.00042 14.6708 9.36308L11.8854 12.1746C12.3187 14.6479 13.5022 16.9281 15.2754 18.7059C17.0485 20.4837 19.3256 21.6732 21.7977 22.1131L24.6354 19.3015C25.0035 18.9434 25.4689 18.7016 25.9735 18.6063C26.4781 18.5109 26.9997 18.5663 27.4731 18.7654L32.4031 20.74C32.8824 20.9399 33.2913 21.278 33.5777 21.7112C33.8642 22.1444 34.0152 22.653 34.0115 23.1723V30.0769C34.0115 31.1174 33.5982 32.1152 32.8625 32.851C32.1268 33.5867 31.1289 34 30.0885 34ZM3.93462 2.61539C3.76289 2.61487 3.59274 2.64818 3.43388 2.71343C3.27503 2.77867 3.13058 2.87456 3.00879 2.99562C2.88699 3.11669 2.79024 3.26056 2.72404 3.41902C2.65785 3.57748 2.62352 3.74743 2.623 3.91916C2.623 3.95577 2.62431 3.99195 2.62692 4.02769C3.22846 11.7692 7.08615 30.0769 30.01 31.3846C30.3561 31.4054 30.6963 31.2878 30.9557 31.0578C31.2152 30.8277 31.3727 30.5041 31.3935 30.158L31.3962 30.0769V23.1723L26.4662 21.1977L22.7131 24.9246L22.0854 24.8462C10.7085 23.4208 9.16538 12.0438 9.16538 11.9262L9.08692 11.2985L12.8008 7.54539L10.8392 2.61539H3.93462Z" fill="#37A89A"/>
</svg>
