<svg width="40" height="29" viewBox="0 0 40 29" fill="none" xmlns="http://www.w3.org/2000/svg">
<path d="M38.4443 5.21089C37.9957 3.53897 36.6811 2.22108 35.0141 1.77087C31.9685 0.935059 19.7858 0.935059 19.7858 0.935059C19.7858 0.935059 7.60346 0.935059 4.5578 1.73901C2.92287 2.18893 1.57627 3.53927 1.1276 5.21089C0.326172 8.26472 0.326172 14.5981 0.326172 14.5981C0.326172 14.5981 0.326172 20.9633 1.1276 23.9853C1.57657 25.6569 2.8908 26.9751 4.55809 27.4253C7.63553 28.2611 19.7861 28.2611 19.7861 28.2611C19.7861 28.2611 31.9685 28.2611 35.0141 27.4571C36.6814 27.0072 37.9957 25.689 38.4446 24.0174C39.2461 20.9633 39.2461 14.6302 39.2461 14.6302C39.2461 14.6302 39.2781 8.26472 38.4443 5.21089Z" fill="#FF0000"/>
<path d="M15.9062 20.4496L26.0368 14.5986L15.9062 8.74756V20.4496Z" fill="white"/>
</svg>
